<?xml version="1.0" standalone="no"?>
<svg xmlns:xlink="http://www.w3.org/1999/xlink" id="wave" style="transform:rotate(0deg); transition: 0.3s" viewBox="0 0 1440 490" version="1.1" xmlns="http://www.w3.org/2000/svg"><defs><linearGradient id="sw-gradient-0" x1="0" x2="0" y1="1" y2="0"><stop stop-color="rgba(62, 243, 166.359, 1)" offset="0%"/><stop stop-color="rgba(11, 85.56, 255, 1)" offset="100%"/></linearGradient></defs><path style="transform:translate(0, 0px); opacity:1" fill="url(#sw-gradient-0)" d="M0,294L17.1,277.7C34.3,261,69,229,103,179.7C137.1,131,171,65,206,65.3C240,65,274,131,309,171.5C342.9,212,377,229,411,196C445.7,163,480,82,514,106.2C548.6,131,583,261,617,261.3C651.4,261,686,131,720,106.2C754.3,82,789,163,823,187.8C857.1,212,891,180,926,155.2C960,131,994,114,1029,163.3C1062.9,212,1097,327,1131,310.3C1165.7,294,1200,147,1234,130.7C1268.6,114,1303,229,1337,253.2C1371.4,278,1406,212,1440,187.8C1474.3,163,1509,180,1543,163.3C1577.1,147,1611,98,1646,114.3C1680,131,1714,212,1749,228.7C1782.9,245,1817,196,1851,220.5C1885.7,245,1920,343,1954,318.5C1988.6,294,2023,147,2057,89.8C2091.4,33,2126,65,2160,114.3C2194.3,163,2229,229,2263,236.8C2297.1,245,2331,196,2366,179.7C2400,163,2434,180,2451,187.8L2468.6,196L2468.6,490L2451.4,490C2434.3,490,2400,490,2366,490C2331.4,490,2297,490,2263,490C2228.6,490,2194,490,2160,490C2125.7,490,2091,490,2057,490C2022.9,490,1989,490,1954,490C1920,490,1886,490,1851,490C1817.1,490,1783,490,1749,490C1714.3,490,1680,490,1646,490C1611.4,490,1577,490,1543,490C1508.6,490,1474,490,1440,490C1405.7,490,1371,490,1337,490C1302.9,490,1269,490,1234,490C1200,490,1166,490,1131,490C1097.1,490,1063,490,1029,490C994.3,490,960,490,926,490C891.4,490,857,490,823,490C788.6,490,754,490,720,490C685.7,490,651,490,617,490C582.9,490,549,490,514,490C480,490,446,490,411,490C377.1,490,343,490,309,490C274.3,490,240,490,206,490C171.4,490,137,490,103,490C68.6,490,34,490,17,490L0,490Z"/></svg>